<?xml version="1.0" encoding="UTF-8"?>
<svg viewBox="0 0 22 22" version="1.1" xmlns="http://www.w3.org/2000/svg" xmlns:xlink="http://www.w3.org/1999/xlink">
    <g id="Forms" stroke="none" stroke-width="1" fill="none" fill-rule="evenodd">
        <g id="Sign-In---Mobile" transform="translate(-123.000000, -390.000000)" fill-rule="nonzero">
            <g id="Form" transform="translate(0.000000, 48.000000)">
                <g id="social-media-sign-in" transform="translate(17.000000, 296.000000)">
                    <g id="Google" transform="translate(0.000000, 35.000000)">
                        <g id="Atoms/Text/H4-/Large/Light/Center" transform="translate(106.000000, 11.000000)">
                            <g id="Stacked-Group">
                                <g id="search">
                                    <path d="M5.17647059,13.2353778 L4.36343579,16.1167912 L1.3918123,16.1764706 C0.503733042,14.6127239 0,12.8235988 0,10.9223475 C0,9.08385054 0.470978077,7.35011725 1.30581911,5.82352941 L1.30645778,5.82352941 L3.95203708,6.28398735 L5.11096066,8.7804732 C4.86840056,9.45180112 4.73619459,10.1724576 4.73619459,10.9223475 C4.73628583,11.7362043 4.89157538,12.5159772 5.17647059,13.2353778 Z" id="Path" fill="#FBBB00"></path>
                                    <path d="M21.8034804,9.05882353 C21.9326482,9.74719589 22,10.458105 22,11.184661 C22,11.9993639 21.915338,12.7940637 21.754054,13.5606258 C21.2065407,16.1691597 19.7758975,18.4469316 17.7940505,20.0588235 L17.7934354,20.0582012 L14.5842746,19.8925313 L14.1300784,17.0238687 C15.4451296,16.2435711 16.4728484,15.0224503 17.0142109,13.5606258 L11,13.5606258 L11,9.05882353 L17.1019483,9.05882353 L21.8034804,9.05882353 L21.8034804,9.05882353 Z" id="Path" fill="#518EF8"></path>
                                    <path d="M18.1170365,19.6592166 L18.1176471,19.6597979 C16.2043619,21.1239501 13.7738866,22 11.1281443,22 C6.87640438,22 3.17984027,19.7374835 1.29411765,16.407921 L4.91218085,13.5882353 C5.85502035,15.9839093 8.28239924,17.6892981 11.1281443,17.6892981 C12.3513193,17.6892981 13.4972581,17.3744865 14.4805692,16.8249156 L18.1170365,19.6592166 Z" id="Path" fill="#28B446"></path>
                                    <path d="M18.1176471,2.58487694 L14.5472858,5.56273097 C13.5426872,4.92300288 12.3551642,4.55344652 11.0829165,4.55344652 C8.21015616,4.55344652 5.76915581,6.43749972 4.88505734,9.05882353 L1.29472036,6.06430306 L1.29411765,6.06430306 C3.12835505,2.46150144 6.82343548,0 11.0829165,0 C13.7570389,0 16.2089312,0.97042533 18.1176471,2.58487694 Z" id="Path" fill="#F14336"></path>
                                </g>
                            </g>
                        </g>
                    </g>
                </g>
            </g>
        </g>
    </g>
</svg>