<?xml version="1.0" encoding="UTF-8"?>
<svg viewBox="0 0 321 220" version="1.1" xmlns="http://www.w3.org/2000/svg" xmlns:xlink="http://www.w3.org/1999/xlink">
    <g id="Forms" stroke="none" stroke-width="1" fill="none" fill-rule="evenodd">
        <g id="Sign-In" transform="translate(-859.000000, -288.000000)" fill-rule="nonzero">
            <g id="Welcome-..." transform="translate(859.000000, 288.000000)">
                <g id="illustration">
                    <path d="M122,210 C122,215.521622 95.1373832,220 62,220 C28.8626168,220 2,215.521622 2,210 C2,208.618919 3.67663551,207.305405 6.71028037,206.110811 C15.5420561,202.627027 35.8775701,200.151351 59.7794393,200.008108 C60.5168224,200.002714 61.2570093,200 62,200 C95.1373832,200 122,204.478381 122,210 Z" id="Path" fill="#3F3D56"></path>
                    <path d="M59,200 C53.5601629,209.287848 44.3613462,215.458225 34.0306965,216.748893 C23.7000469,218.039561 13.3733976,214.308615 6,206.621599 C14.8202663,202.841598 35.1292794,200.155432 59,200 Z" id="Path" fill="#000000" opacity="0.1"></path>
                    <ellipse id="Oval" fill="#3F3D56" cx="31" cy="177" rx="31" ry="34"></ellipse>
                    <path d="M70,24 C74.4365821,40.8712656 88.7490806,51.7759053 102,48.3806831" id="Path" fill="#3F3D56"></path>
                    <path d="M102.161944,48 C97.8676409,30.3606992 105.845989,12.9173339 120,9" id="Path" fill="#6C63FF"></path>
                    <path d="M79,23 C83.2305043,39.4405204 93.517612,50.9467073 102,48.7256234" id="Path" fill="#6C63FF"></path>
                    <path d="M101.685393,48 C96.0185945,25.9069719 105.104628,4.43821945 122,0" id="Path" fill="#3F3D56"></path>
                    <path d="M97,49.9913483 C97,49.9913483 100.216501,49.045112 101.013062,48.0908582 C101.809622,47.1366044 105.60443,45.255328 106.136523,46.3136593 C106.668617,47.3719906 112.45001,50.6206631 108.796996,51.6053239 C105.143982,52.5899848 100.143196,53.2512142 99.013681,52.9085719 C97.884166,52.5659296 97,49.9913483 97,49.9913483 Z" id="Path" fill="#A8A8A8"></path>
                    <path d="M108.762271,50.2222323 C105.10901,51.1935831 100.107896,51.8458665 98.9783032,51.507856 C98.1180576,51.2504444 97.4006276,49.7170907 97.107157,49 C97.0393358,49.0205757 97,49.0320404 97,49.0320404 C97,49.0320404 97.8842223,51.5717968 99.0138153,51.9098074 C100.143408,52.2478179 105.144527,51.5955319 108.797783,50.6241837 C109.852336,50.3437951 110.119765,49.8771289 109.955176,49.3302442 C109.895698,49.7015552 109.547189,50.0135404 108.762271,50.2222323 Z" id="Path" fill="#000000" opacity="0.2"></path>
                    <rect id="Rectangle" fill="#F2F2F2" x="96" y="36" width="225" height="131"></rect>
                    <rect id="Rectangle" fill="#6C63FF" opacity="0.3" x="102" y="75" width="123" height="65"></rect>
                    <rect id="Rectangle" fill="#3F3D56" x="234" y="72" width="49" height="3"></rect>
                    <rect id="Rectangle" fill="#3F3D56" x="234" y="77" width="72" height="3"></rect>
                    <rect id="Rectangle" fill="#3F3D56" x="234" y="90" width="49" height="3"></rect>
                    <rect id="Rectangle" fill="#3F3D56" x="234" y="110" width="49" height="3"></rect>
                    <rect id="Rectangle" fill="#3F3D56" x="234" y="95" width="72" height="3"></rect>
                    <rect id="Rectangle" fill="#3F3D56" x="234" y="100" width="72" height="3"></rect>
                    <rect id="Rectangle" fill="#3F3D56" x="234" y="105" width="72" height="3"></rect>
                    <rect id="Rectangle" fill="#6C63FF" x="234" y="123" width="26" height="7"></rect>
                    <path d="M89,114.917908 C89,114.917908 93.2312057,101.644461 96.2870775,105.808679 C99.3429492,109.972896 91.5857367,117 91.5857367,117 L89,114.917908 Z" id="Path" fill="#A0616A"></path>
                    <path d="M66.3237338,102 L69.1281741,103.035912 C69.1281741,103.035912 70.4676207,108.96972 69.9496338,110.002271 C69.4316469,111.034822 69.1726548,110.260408 69.9496338,112.325509 C70.7266128,114.39061 73.0575469,119.811503 73.3165474,120.585917 C73.5755479,121.360331 88.3381289,115.681301 88.3381289,112.841786 C88.3381289,112.841786 91.4460448,116.455712 93,117.230125 C93,117.230125 75.9064736,129.620736 73.5755395,131.169563 C71.2446053,132.71839 69.9496394,131.943977 67.8776973,130.137012 C65.8057553,128.330048 57,113.35806 57,113.35806 L66.3237338,102 Z" id="Path" fill="#575A89"></path>
                    <path d="M73.8023159,193.695197 C73.8023159,193.695197 73.5480221,196.600041 73.0394318,196.864117 C72.5308415,197.128193 68.7164264,203.730112 73.0394318,205.050495 C77.3624371,206.370878 79.905386,205.842726 80.9225639,206.37088 C81.9397418,206.899035 99.740359,207.955339 99.9946528,205.050495 C100.248947,202.145651 91.3486421,201.61749 91.3486421,201.61749 C91.3486421,201.61749 83.2112162,196.071889 81.9397445,193.167033 C80.6682729,190.262177 73.8023159,193.695197 73.8023159,193.695197 Z" id="Path" fill="#2F2E41"></path>
                    <path d="M20.964625,200 C20.964625,200 14.6812728,210.53129 16.2521094,211.815601 C17.822946,213.099913 33.1210829,217.780214 35.3639773,217.980261 C38.2438478,218.237121 40.3382985,215.925374 37.9820422,214.641063 C35.6257858,213.356751 30.6514617,207.96268 30.6514617,206.164657 L30.6514617,201.541166 L20.964625,200 Z" id="Path" fill="#2F2E41"></path>
                    <path d="M14.7036787,129 C14.7036787,129 9.27102694,135.738491 17.8080563,146.623738 L32.0364571,164.765829 C32.0364571,164.765829 23.240722,178.761154 22.982019,186.017992 C22.7233159,193.274829 20.9124339,191.719792 20.395039,194.829861 C19.8776441,197.93993 17.5493588,196.384898 19.3602465,198.717452 C21.1711341,201.050005 27.897287,203.123389 29.9668721,201.30918 C32.0364571,199.49497 32.0364571,197.162417 32.0364571,196.125726 C32.0364571,195.089036 35.6582324,189.128061 35.9169298,187.313857 C36.1756273,185.499654 45.7474603,170.726804 45.7474603,170.726804 C45.7474603,170.726804 48.8518407,161.914935 45.2300655,156.990651 C41.6082902,152.066366 39.2150076,145.08234 39.2150076,145.08234 C39.2150076,145.08234 49.8866333,158.027341 57.3888812,161.137402 C57.3888812,161.137402 60.2345614,161.655746 59.7171638,162.951611 C59.1997661,164.247477 59.7171638,165.024993 60.4932589,166.320864 C61.269354,167.616735 66.7020141,182.648745 68.5129017,186.536339 C70.3237893,190.423932 69.5476942,192.756483 71.6172821,194.052345 C73.68687,195.348208 83,194.31152 83,193.015655 C83,191.719789 81.70651,188.350545 80.9304149,186.536339 C80.1543198,184.722132 73.9455646,163.729138 74.4629623,160.100731 C74.9803599,156.472323 74.204262,151.548031 70.3237893,149.47465 C66.4433166,147.401268 46.7822529,130.55504 45.7474603,130.55504 C44.7126678,130.55504 14.7036787,129 14.7036787,129 Z" id="Path" fill="#2F2E41"></path>
                    <circle id="Oval" fill="#A0616A" cx="67" cy="78" r="11"></circle>
                    <path d="M57.3178247,79 C57.3178247,79 53.9165449,84.826664 49.7303696,85.5866748 C45.5441943,86.3466857 60.7190988,98 60.7190988,98 C60.7190988,98 64.3820057,86.8533422 67.5216584,86.3466747 C70.6613111,85.8400072 57.3178247,79 57.3178247,79 Z" id="Path" fill="#A0616A"></path>
                    <path d="M69,104.11411 C69,107.496663 58.8440332,117.1239 58.8440332,117.1239 L49.2088838,125.189972 C49.2088838,125.189972 48.9484723,128.052126 47.9068348,128.312321 C46.8651973,128.572516 45.563151,128.572516 46.6047886,130.133692 C47.6464261,131.694868 50.2505214,135.077413 47.9068348,135.597794 C47.2002708,135.705167 46.4882435,135.772922 45.7740968,135.800739 C45.1490911,135.837168 44.4147673,135.870997 43.589228,135.902218 C41.6622212,135.969872 39.250828,136.014101 36.6389124,135.995884 C35.8967213,135.99328 35.1415386,135.98461 34.3733642,135.969872 C24.5272691,135.774736 13.1213221,134.642863 14.0536076,130.914269 C15.6160653,124.669568 14.5744277,122.588002 17.9597491,119.205458 C21.3450704,115.822913 26.8136668,104.114099 26.8136668,104.114099 C26.8136668,104.114099 37.7508652,85.6401965 46.8651944,85.6401965 L48.7583761,85.1432115 C50.5623865,84.6683609 52.4681397,85.3998624 53.4899949,86.9593892 C55.3180758,89.740885 58.2008262,93.919631 59.885668,95.2674418 C62.4897604,97.3490079 62.8960169,95.8554858 62.8960169,95.8554858 C62.8960169,95.8554858 69,100.731563 69,104.11411 Z" id="Path" fill="#575A89"></path>
                    <path d="M45.0129967,143 C45.0129967,143 51.8586956,154.711088 47.609641,156.793059 C43.3605865,158.87503 41,144.561474 41,144.561474 L45.0129967,143 Z" id="Path" fill="#A0616A"></path>
                    <path d="M59.8066236,75.967737 C60.2330804,75.9167634 60.3679537,75.4070795 60.4397346,75.0056497 C60.8241212,72.8559573 62.5154477,70.8174681 64.7879485,70.4704429 C65.6565396,70.3609896 66.539791,70.4284128 67.3786673,70.668206 C68.5804158,70.9805507 69.7085028,71.5064896 70.7028251,72.2180014 C71.2276229,72.5939756 71.7326707,73.030415 72.364012,73.2060372 C72.7809683,73.3220254 74.5513547,74.0675449 74.9650117,74.1936884 C75.8744792,74.4710274 76.6270849,75.3726792 77.5637443,75.1941486 C78.4598546,75.0233495 78.8001869,73.9983923 78.9442147,73.1434001 C79.2723363,71.1955518 78.0952722,68.2891801 76.924984,66.6576315 C76.0368961,65.4195132 74.5340549,64.7069615 73.0314595,64.2434091 C71.2711448,63.7372802 69.4624147,63.3968556 67.63154,63.2270797 C65.1599357,62.9505883 62.6000569,62.8038989 60.2314394,63.5275428 C57.8628218,64.2511866 55.7060704,66.0213817 55.263892,68.3412477 C55.1717808,68.8244984 55.1545238,69.3194722 55.041642,69.7987529 C54.7662747,70.9679541 53.9495502,71.9507336 53.4731353,73.060431 C52.7780886,74.7084852 52.8515726,76.558137 53.675418,78.1520517 C54.3351348,79.4087012 55.4823824,80.6162945 55.2347931,82 L57.2764241,80.4751376 C57.8843753,80.1479269 58.168364,79.4628848 57.9578978,78.8312756 L57.6611023,76.409847 C57.6067585,75.966475 57.5594306,75.4880284 57.7935283,75.1006777 C58.7009487,73.5992508 59.095582,76.0527181 59.8066236,75.967737 Z" id="Path" fill="#2F2E41"></path>
                    <path d="M40.6838888,124.703757 L43.0980734,134.90011 C40.6633557,134.988622 37.4418968,135.035478 34.0281396,134.967794 C33.1669899,132.34386 32.3443227,129.607996 31.7138707,127.046552 C29.4072956,117.675379 33.2515847,103.35831 35.3018746,96.5902414 C37.3521646,89.8221727 42.4779019,88 42.4779019,88 C42.4779019,88 45.0407622,88.7809315 48.3724782,91.1237234 C51.7041942,93.4665152 40.6838888,124.703757 40.6838888,124.703757 Z" id="Path" fill="#000000" opacity="0.1"></path>
                    <path d="M43.4092239,124.386199 L45.852094,134.804356 C45.2544317,134.840124 44.5522336,134.873338 43.7628107,134.903993 C41.9201083,134.970419 39.6142108,135.013845 37.1165635,134.995959 C36.2176481,132.25986 35.3485217,129.373009 34.6936227,126.68545 C32.4524697,117.488443 36.1877246,103.437463 38.1798588,96.7951783 C40.171993,90.1528933 44.5297883,97.4338602 44.5297883,97.4338602 C44.5297883,97.4338602 42.7866702,93.0908311 46.0238876,95.3900814 C49.261105,97.6893318 43.4092239,124.386199 43.4092239,124.386199 Z" id="Path" fill="#000000" opacity="0.1"></path>
                    <path d="M44.4778841,87 C44.4778841,87 39.3521641,88.8484823 37.3018761,95.7142833 C35.2515881,102.580084 31.4072946,117.103894 33.7138707,126.610389 C36.0204468,136.116883 40.8898787,148 40.8898787,148 C40.8898787,148 45.7593161,144.30303 47.5533299,145.095238 L42.6838952,124.233767 C42.6838952,124.233767 53.7041967,92.5454527 50.3724766,90.1688305 C47.0407565,87.7922083 44.4778841,87 44.4778841,87 Z" id="Path" fill="#575A89"></path>
                    <rect id="Rectangle" fill="#3F3D56" x="96" y="69" width="123" height="65"></rect>
                    <circle id="Oval" fill="#FFFFFF" cx="161" cy="102" r="14"></circle>
                    <path d="M160,85 C150.611159,85 143,92.6111593 143,102 C143,111.388841 150.611159,119 160,119 C169.388841,119 177,111.388841 177,102 C176.972552,92.6225522 169.377448,85.0274482 160,85 Z M156.510097,111.06394 L147.797596,102.351439 L150.241346,99.9076918 L156.518271,106.184616 L169.766827,92.9360567 L172.210578,95.3798069 L156.510097,111.06394 L156.510097,111.06394 Z" id="Shape" fill="#6C63FF"></path>
                </g>
            </g>
        </g>
    </g>
</svg>